<svg width="471" height="511" viewBox="0 0 471 511" fill="none" xmlns="http://www.w3.org/2000/svg">
<path opacity="0.5" fill-rule="evenodd" clip-rule="evenodd" d="M88.7485 405.552C278.647 577.496 400.682 377.594 400.682 377.594C512.382 232.702 422.24 102.999 331.153 39L170.502 39C163.074 51.1682 156.767 64.7442 150.657 77.8977C139.291 102.365 128.604 125.37 112.637 135.133C108.995 137.361 104.56 139.865 99.5806 142.676C42.5294 174.889 -85.9076 247.409 88.7485 405.552Z" fill="url(#paint0_linear)"/>
<path d="M230 465C104.079 465 2 475.297 2 488C2 500.703 104.079 511 230 511C355.921 511 458 500.703 458 488C458 475.297 355.921 465 230 465Z" fill="#F0F0F5"/>
<path d="M436.38 398.817C436.38 398.817 404.032 491.056 400.566 491.056C397.1 491.056 327.782 512.963 389.013 485.291C389.013 485.291 395.945 384.981 406.343 380.369C416.74 375.758 436.38 398.817 436.38 398.817Z" fill="#965450"/>
<path d="M412.119 465.229C422.632 437.903 436.38 398.817 436.38 398.817C436.38 398.817 416.74 375.758 406.343 380.369C399.642 383.367 394.328 426.489 391.439 456.466C398.371 459.234 405.187 462.231 412.119 465.229Z" fill="#76413B"/>
<path d="M378.962 490.249C378.962 490.249 376.305 496.36 401.721 489.903L400.566 493.362C400.566 493.362 328.938 510.196 378.962 490.249Z" fill="#051F38"/>
<path d="M416.739 359.731C416.739 359.731 466.764 443.784 464.569 446.436C462.374 449.087 434.647 516.191 452.669 451.509C452.669 451.509 380.117 381.753 383.236 370.8C386.471 359.962 416.739 359.731 416.739 359.731Z" fill="#965450"/>
<path d="M450.128 462.347C450.128 462.347 453.132 468.342 464.454 444.706L466.418 447.819C466.303 447.819 433.261 513.539 450.128 462.347Z" fill="#051F38"/>
<path d="M445.854 409.771C432.452 386.134 416.74 359.731 416.74 359.731C416.74 359.731 386.471 359.962 383.237 370.8C381.157 377.833 410.964 409.655 432.106 431.101C432.221 431.216 440.424 422.108 445.854 409.771Z" fill="#76413B"/>
<path d="M448.51 233.364C448.51 233.364 417.894 199.351 399.987 220.681C382.08 242.011 354.353 312.343 358.396 341.168C360.822 358.117 377.112 376.219 390.167 388.325L379.192 450.125C379.192 450.125 424.248 462.231 421.36 462.231C419.627 462.231 465.839 338.286 470.46 299.084C475.081 259.883 448.51 233.364 448.51 233.364Z" fill="#6633CC"/>
<path opacity="0.2" d="M425.058 240.974C433.608 240.858 442.965 239.705 451.168 236.362C449.551 234.402 448.511 233.364 448.511 233.364C448.511 233.364 417.895 199.351 399.988 220.681C397.216 224.025 394.212 228.406 391.208 233.71C401.259 239.244 413.967 241.204 425.058 240.974Z" fill="#352C38"/>
<path opacity="0.2" d="M379.193 257.461C366.485 286.401 355.74 322.374 358.398 341.053C360.708 357.886 376.882 375.873 389.937 387.979C394.558 356.618 402.992 313.035 408.075 287.9C395.483 280.752 385.085 270.49 379.193 257.461Z" fill="#352C38"/>
<path d="M360.131 165.337L341.646 201.08C341.646 201.08 309.297 183.208 304.676 183.208C300.055 183.208 278.104 183.785 288.502 188.397C288.502 188.397 283.881 191.279 289.08 192.432C289.08 192.432 284.458 196.468 290.235 197.044L303.521 196.468C303.521 196.468 330.093 220.68 343.379 224.139C356.665 227.598 378.038 182.632 378.038 182.632L360.131 165.337Z" fill="#965450"/>
<path d="M363.134 190.934C366.023 191.972 369.026 193.01 372.03 194.047C375.727 187.59 378.038 182.517 378.038 182.517L360.131 165.223L349.964 184.823C354.008 187.36 358.513 189.32 363.134 190.934Z" fill="#76413B"/>
<path d="M383.236 148.043C383.236 148.043 365.907 145.161 359.552 154.385C353.198 163.608 350.31 178.597 350.31 178.597L375.149 190.704L383.236 148.043Z" fill="#34CB79"/>
<path opacity="0.1" d="M373.648 180.673C367.294 175.715 360.015 169.489 355.279 161.994C351.813 170.065 350.195 178.482 350.195 178.482L375.034 190.588L376.536 182.748C375.612 182.171 374.572 181.48 373.648 180.673Z" fill="#161826"/>
<path d="M261.699 178.943C262.392 180.788 261.353 182.863 259.504 183.555L245.872 188.513C244.023 189.205 241.944 188.167 241.251 186.322L235.821 171.218C235.127 169.373 236.167 167.298 238.016 166.606L251.648 161.648C253.497 160.957 255.576 161.994 256.269 163.839L261.699 178.943Z" fill="#23173B"/>
<path d="M272.674 167.644L229.928 182.979C222.419 185.63 218.607 193.932 221.264 201.426L234.434 237.976C237.091 245.47 245.409 249.275 252.919 246.623L295.665 231.289C303.174 228.637 306.987 220.335 304.33 212.841L291.159 176.291C288.387 168.797 280.184 164.877 272.674 167.644ZM300.171 216.185C301.21 219.182 299.708 222.526 296.705 223.564L278.335 172.832C281.339 171.795 284.69 173.293 285.729 176.291L300.171 216.185Z" fill="#322153"/>
<path d="M258.926 163.608C259.504 165.223 258.695 167.067 257.078 167.644L237.669 174.677C236.052 175.254 234.203 174.446 233.625 172.832L232.008 168.336C231.43 166.721 232.239 164.877 233.856 164.3L253.265 157.267C254.883 156.69 256.731 157.498 257.309 159.112L258.926 163.608Z" fill="#6633CC"/>
<path d="M286.192 185.515C286.192 185.515 293.47 182.979 294.741 184.477C295.896 185.861 288.618 187.936 288.964 188.052C289.195 188.167 296.82 186.437 297.514 188.052C298.207 189.666 289.426 192.548 289.426 192.548C289.426 192.548 297.745 190.242 298.322 191.972C298.9 193.701 289.657 196.238 289.657 196.238L289.195 192.433L288.618 188.052L286.192 185.515Z" fill="#965450"/>
<path d="M296.474 183.555C296.474 183.555 290.813 179.75 290.813 178.482C290.697 177.098 305.832 183.44 305.832 183.44L296.474 183.555Z" fill="#965450"/>
<path d="M408.075 145.161C406.92 147.236 412.581 98.926 412.581 98.926L386.356 116.567C386.356 116.567 388.666 147.467 385.778 147.582C384.623 147.582 380.117 149.311 375.149 151.156C376.305 156.921 378.615 158.189 380.579 163.724C395.252 163.608 411.195 163.263 420.206 149.888C415.007 148.158 409.577 142.278 408.075 145.161Z" fill="#76413B"/>
<path d="M383.237 148.043L382.081 144.008L410.964 137.666L412.119 144.584C412.119 144.584 446.778 156.114 451.399 182.056C456.02 207.998 453.71 224.717 448.511 233.364C448.511 233.364 408.075 239.129 390.746 230.482C373.417 221.834 355.509 157.267 364.752 151.502C373.994 145.737 383.237 148.043 383.237 148.043Z" fill="#34CB79"/>
<path opacity="0.1" d="M421.015 219.874C407.151 219.067 390.168 217.453 378.615 208.921C376.42 207.306 374.456 205.577 372.608 203.617C377.807 216.415 384.276 227.253 390.746 230.481C408.076 239.129 448.511 233.364 448.511 233.364C450.822 229.559 452.555 224.14 453.363 216.992C442.966 220.105 432.106 220.566 421.015 219.874Z" fill="#161826"/>
<path d="M419.628 199.927L449.088 197.621C449.088 197.621 441.579 249.505 432.914 267.377C424.25 285.248 384.392 355.58 399.988 316.378C399.988 316.378 379.771 346.933 397.1 315.802C397.1 315.802 378.038 340.591 394.789 314.073C394.789 314.073 375.149 336.556 395.945 304.849C395.945 304.849 380.348 312.343 397.678 299.66L414.429 255.847L419.628 199.927Z" fill="#965450"/>
<path d="M448.395 201.772C448.857 199.12 449.088 197.506 449.088 197.506L419.628 199.812L419.397 202.81C428.986 202.81 438.691 202.349 448.395 201.772Z" fill="#76413B"/>
<path d="M388.782 67.9108C388.782 67.9108 403.455 59.3787 424.943 73.4451C439.153 82.7843 438.46 112.647 407.729 132.247C371.222 155.538 388.782 67.9108 388.782 67.9108Z" fill="#051F38"/>
<path d="M409.116 83.8219C409.116 83.8219 392.595 71.0238 378.5 77.2499C360.709 85.3208 362.557 104.114 362.21 120.141C361.748 141.471 378.616 145.507 383.699 145.737C391.208 146.198 421.824 144.354 409.116 83.8219Z" fill="#965450"/>
<path d="M410.733 103.769C410.733 103.769 411.426 100.54 416.972 103.077C424.019 106.42 420.207 123.254 412.35 122.793C404.379 122.447 410.733 103.769 410.733 103.769Z" fill="#965450"/>
<path d="M410.733 103.769C410.733 103.769 411.657 115.298 409 115.414C406.227 115.529 403.339 94.5447 410.964 94.5447C418.589 94.7753 410.733 103.769 410.733 103.769Z" fill="#051F38"/>
<path d="M410.733 103.769C410.733 103.769 405.072 78.1724 371.453 82.4384C371.453 82.4384 376.305 72.8686 386.934 68.372C401.375 62.2612 422.979 86.8197 416.971 103.077C416.971 103.077 414.199 103.423 410.733 103.769Z" fill="#34CB79"/>
<path d="M424.943 80.1324C424.943 80.1324 423.094 49.5783 430.488 49.5783C437.882 49.5783 429.911 75.2899 429.911 75.2899C429.911 75.2899 436.034 38.5097 453.825 44.044C471.617 49.5783 440.886 75.2899 440.886 75.2899C440.886 75.2899 454.981 62.3765 459.948 66.7578C464.801 71.0238 439.731 79.6712 439.731 79.6712C439.731 79.6712 458.793 74.1369 461.219 83.3608C463.645 92.4693 424.365 91.2011 424.943 80.1324Z" fill="#051F38"/>
<path d="M363.134 97.8889C363.134 97.8889 363.134 97.6583 363.365 97.1971C363.596 96.7359 363.828 96.1594 364.405 95.5829C364.983 95.0064 365.676 94.3146 366.6 93.8534C366.831 93.7381 367.062 93.6228 367.409 93.5075C367.64 93.3922 367.987 93.2769 368.218 93.2769C368.564 93.2769 368.795 93.1616 369.142 93.1616H370.066C370.644 93.1616 371.221 93.3922 371.799 93.6228C372.377 93.8534 372.839 94.084 373.301 94.4299C373.763 94.7758 374.11 95.1217 374.456 95.4676C374.803 95.8135 375.034 96.1594 375.149 96.5053C375.265 96.6206 375.381 96.8512 375.381 96.9665C375.496 97.0818 375.496 97.3124 375.612 97.4277C375.727 97.7736 375.843 98.0042 375.843 98.2348C375.958 98.6959 375.958 98.9265 375.958 98.9265C375.958 98.9265 375.727 98.8112 375.265 98.696C375.034 98.5807 374.803 98.4653 374.572 98.3501C374.341 98.2348 373.994 98.1195 373.648 97.8889C373.301 97.7736 373.07 97.543 372.723 97.4277C372.377 97.3124 372.03 97.1971 371.684 97.0818C371.337 96.9665 370.99 96.8512 370.644 96.7359C370.297 96.7359 369.951 96.6206 369.604 96.6206H369.142C369.026 96.6206 368.795 96.6206 368.564 96.6206C368.218 96.6206 367.871 96.7359 367.524 96.7359C367.178 96.8512 366.831 96.8512 366.485 96.9665C366.138 97.0818 365.792 97.0818 365.445 97.1971C364.752 97.4277 364.174 97.543 363.828 97.6583C363.481 97.8889 363.134 97.8889 363.134 97.8889Z" fill="#051F38"/>
<path d="M372.03 129.595C372.03 129.595 390.977 130.172 392.248 129.941C393.403 129.711 381.619 138.935 372.03 129.595Z" fill="white"/>
<path d="M373.301 108.496C373.301 108.496 373.301 108.726 373.185 109.188C373.07 109.649 372.954 110.225 372.723 111.032C372.608 111.378 372.492 111.839 372.261 112.185C372.146 112.416 372.03 112.647 371.915 112.762C371.799 112.992 371.568 113.223 371.453 113.338C371.106 113.684 370.759 114.145 370.182 114.376C370.066 114.491 369.951 114.491 369.72 114.607L369.373 114.722C369.142 114.837 368.795 114.837 368.449 114.837C367.871 114.837 367.178 114.722 366.716 114.261C366.254 113.915 365.907 113.454 365.676 112.877C365.445 112.416 365.329 111.955 365.214 111.494C365.098 111.032 365.098 110.571 365.098 110.225C365.098 109.418 365.098 108.842 365.214 108.381C365.329 107.919 365.445 107.689 365.445 107.689C365.445 107.689 365.445 108.726 365.792 110.225C365.907 110.917 366.138 111.839 366.6 112.531C366.831 112.877 367.062 113.223 367.409 113.454C367.756 113.684 368.102 113.8 368.449 113.8C368.68 113.8 368.795 113.8 369.026 113.684L369.373 113.569C369.373 113.569 369.489 113.454 369.604 113.454C369.951 113.338 370.297 112.992 370.644 112.762C370.99 112.416 371.221 112.07 371.453 111.724C371.684 111.378 371.915 111.032 372.03 110.686C372.377 109.995 372.608 109.418 372.839 109.072C373.185 108.726 373.301 108.496 373.301 108.496Z" fill="#1F2733"/>
<path d="M392.363 109.995C392.363 109.995 392.363 110.225 392.248 110.686C392.132 111.148 392.017 111.724 391.786 112.531C391.67 112.877 391.555 113.338 391.324 113.684C391.208 113.915 391.093 114.145 390.977 114.261C390.862 114.491 390.63 114.722 390.515 114.837C390.168 115.183 389.822 115.644 389.244 115.875C389.129 115.99 389.013 115.99 388.782 116.106L388.435 116.221C388.204 116.336 387.858 116.336 387.511 116.336C386.934 116.336 386.24 116.221 385.778 115.76C385.316 115.414 384.97 114.953 384.738 114.376C384.507 113.915 384.392 113.454 384.276 112.992C384.161 112.531 384.161 112.07 384.161 111.724C384.161 110.917 384.161 110.341 384.276 109.879C384.392 109.418 384.507 109.188 384.507 109.188C384.507 109.188 384.507 110.225 384.854 111.724C384.97 112.416 385.201 113.338 385.663 114.03C385.894 114.376 386.125 114.722 386.471 114.953C386.818 115.183 387.165 115.298 387.511 115.298C387.742 115.298 387.858 115.298 388.089 115.183L388.435 115.068C388.435 115.068 388.551 114.953 388.666 114.953C389.013 114.837 389.36 114.491 389.706 114.261C390.053 113.915 390.284 113.569 390.515 113.223C390.746 112.877 390.977 112.531 391.093 112.185C391.439 111.494 391.67 110.917 391.901 110.571C392.248 110.225 392.363 109.995 392.363 109.995Z" fill="#1F2733"/>
<path d="M413.39 119.565C413.736 119.103 413.967 118.757 414.198 118.296C414.43 117.835 414.545 117.374 414.661 116.913C414.661 116.682 414.661 116.451 414.661 116.221C414.661 116.106 414.545 115.99 414.545 115.99C414.545 115.875 414.43 115.76 414.314 115.76C414.198 115.644 414.198 115.644 414.083 115.529L413.852 115.298C413.736 115.183 413.621 115.183 413.505 115.183L413.159 115.068L412.928 114.953V114.722C412.581 113.454 412.466 112.301 412.35 111.032C412.234 110.456 412.234 109.764 412.35 109.188C412.35 108.496 412.466 107.919 412.697 107.228C412.812 106.882 413.043 106.536 413.39 106.305C413.736 106.075 414.198 105.844 414.545 105.959C415.007 105.959 415.238 106.075 415.585 106.19C415.931 106.305 416.278 106.421 416.509 106.651C416.74 106.882 417.087 107.112 417.202 107.343C417.433 107.574 417.549 107.919 417.664 108.15C417.895 108.726 418.011 109.418 417.895 109.995C417.78 109.418 417.664 108.842 417.318 108.265C417.202 108.035 416.971 107.804 416.74 107.573C416.509 107.343 416.278 107.228 416.047 107.112C415.816 106.997 415.585 106.882 415.238 106.882C415.007 106.882 414.661 106.766 414.43 106.766C413.967 106.766 413.736 107.112 413.621 107.573C413.274 108.611 413.39 109.764 413.39 110.917C413.505 112.07 413.621 113.338 413.852 114.491L413.621 114.146L413.967 114.376C414.083 114.491 414.198 114.491 414.314 114.607L414.661 114.837C414.776 114.953 414.892 115.068 415.007 115.183C415.123 115.299 415.238 115.414 415.238 115.644C415.354 115.76 415.354 115.99 415.354 116.106C415.469 116.451 415.354 116.682 415.354 117.028C415.238 117.604 414.892 118.066 414.545 118.527C414.198 118.873 413.736 119.334 413.39 119.565Z" fill="#76413B"/>
<path d="M375.034 124.407C374.456 124.522 373.994 124.522 373.532 124.522C373.07 124.522 372.608 124.407 372.261 124.292C371.799 124.176 371.453 123.946 371.106 123.831C370.875 123.715 370.759 123.6 370.528 123.485C370.297 123.369 370.182 123.254 369.951 123.139L369.258 122.562L369.373 122.101C370.528 118.757 371.684 115.529 372.839 112.301C373.994 109.072 375.265 105.729 376.536 102.5C375.727 105.844 374.803 109.303 373.994 112.647C373.07 115.99 372.146 119.334 371.222 122.678L370.759 121.64C370.991 121.64 371.222 121.755 371.453 121.755C371.684 121.755 371.915 121.87 372.03 121.986C372.377 122.101 372.839 122.332 373.186 122.562C373.532 122.793 373.879 123.139 374.225 123.485C374.456 123.6 374.803 123.946 375.034 124.407Z" fill="#76413B"/>
<path d="M381.85 96.5048C381.85 96.5048 381.966 96.1589 382.312 95.813C382.543 95.5824 382.659 95.3518 383.005 95.0059C383.352 94.7753 383.583 94.4294 384.045 94.1988C384.392 93.9682 384.854 93.6223 385.432 93.3917C385.894 93.1611 386.471 92.9306 387.049 92.7C387.627 92.5847 388.32 92.3541 389.013 92.3541C389.36 92.3541 389.706 92.3541 390.053 92.3541L391.093 92.4694C391.786 92.4694 392.479 92.8153 393.057 92.9306C393.634 93.1612 394.212 93.507 394.789 93.7376C395.367 94.0835 395.829 94.4294 396.176 94.7753C396.638 95.1212 396.985 95.5824 397.216 95.9283C397.562 96.2742 397.793 96.6201 398.024 96.966C398.255 97.3119 398.371 97.6578 398.486 97.8884C398.718 98.3496 398.833 98.6955 398.833 98.6955C398.833 98.6955 398.486 98.5802 398.024 98.3496C397.793 98.2343 397.447 98.119 397.1 97.8884C396.753 97.6578 396.407 97.5425 395.945 97.4272C395.598 97.3119 395.136 97.0813 394.674 96.8507C394.212 96.7354 393.75 96.5048 393.288 96.3895C392.825 96.2742 392.363 96.1589 391.901 96.0436C391.439 96.0436 390.977 95.813 390.399 95.813L389.706 95.6977H389.013C388.551 95.6977 387.973 95.6977 387.511 95.6977C387.049 95.6977 386.587 95.6977 386.125 95.813C385.663 95.813 385.201 95.9283 384.738 95.9283C383.93 96.0436 383.121 96.1589 382.659 96.2742C382.197 96.5048 381.85 96.5048 381.85 96.5048Z" fill="#051F38"/>
<path d="M365.907 490.825C365.907 494.976 362.557 498.435 358.398 498.55C354.238 498.55 350.773 495.207 350.657 491.056L350.31 466.613C350.31 462.462 353.661 459.003 357.82 458.888C361.979 458.888 365.445 462.231 365.56 466.382L365.907 490.825Z" fill="#091E1D"/>
<path d="M259.504 492.095C259.504 496.245 256.154 499.704 251.995 499.82C247.836 499.82 244.37 496.476 244.254 492.325L243.908 467.882C243.908 463.731 247.258 460.272 251.417 460.157C255.576 460.157 259.042 463.501 259.158 467.651L259.504 492.095Z" fill="#091E1D"/>
<path d="M357.358 473.415C357.473 482.87 349.848 490.595 340.375 490.71L269.209 491.517C259.735 491.633 251.995 484.023 251.879 474.568L244.254 312.92C244.139 303.466 251.764 295.741 261.237 295.625L343.841 294.588C353.314 294.472 361.055 302.082 361.17 311.536L357.358 473.415Z" fill="#34CB79"/>
<path opacity="0.1" d="M360.708 327.793L361.055 311.767C360.939 302.312 353.199 294.703 343.725 294.818L261.122 295.856C251.648 295.971 244.023 303.696 244.139 313.151L244.947 329.177L360.708 327.793Z" fill="#161826"/>
<path d="M374.803 307.732C374.803 310.383 372.723 312.459 370.066 312.574L235.127 314.188C232.47 314.188 230.391 312.113 230.275 309.461L230.044 292.397C230.044 289.745 232.124 287.67 234.781 287.554L369.72 285.94C372.377 285.94 374.456 288.016 374.572 290.667L374.803 307.732Z" fill="#34CB79"/>
<path d="M303.174 355.119L318.886 345.665L315.074 355.465L303.174 355.119Z" fill="white"/>
<path d="M297.282 340.246C297.282 340.246 298.553 340.246 300.517 343.243C302.481 346.241 306.871 354.312 306.871 354.312L314.843 350.738L316.691 347.625C316.691 347.625 313.226 340.707 310.453 340.246H297.282Z" fill="white"/>
<path d="M292.892 342.321C292.892 342.321 295.318 339.669 297.282 341.053C299.246 342.437 302.712 348.202 302.712 348.202L297.051 358.117L286.885 352.468L292.892 342.321Z" fill="white"/>
<path d="M310.337 367.456L311.146 385.673L304.33 377.718L310.337 367.456Z" fill="white"/>
<path d="M326.28 369.301C326.28 369.301 325.703 370.454 322.121 370.8C318.54 371.146 309.297 371.146 309.297 371.146L308.604 379.908L310.453 383.021C310.453 383.021 318.193 383.367 319.926 381.061L326.28 369.301Z" fill="white"/>
<path d="M326.396 364.458C326.396 364.458 327.667 367.802 325.472 368.955C323.392 369.993 316.576 370.223 316.576 370.223L310.453 360.538L320.273 354.197L326.396 364.458Z" fill="white"/>
<path d="M296.472 367.226L280.298 358.693L290.695 356.849L296.472 367.226Z" fill="white"/>
<path d="M286.885 380.024C286.885 380.024 286.192 378.986 287.694 375.758C289.195 372.529 293.817 364.574 293.817 364.574L286.654 359.616L283.072 359.731C283.072 359.731 278.913 366.303 279.953 368.84L286.885 380.024Z" fill="white"/>
<path d="M290.928 382.56C290.928 382.56 287.347 381.868 287.578 379.562C287.693 377.141 290.928 371.261 290.928 371.261L302.366 370.915L302.828 382.56H290.928Z" fill="white"/>
<path d="M55.2474 445.167C55.2474 445.167 52.7058 485.868 50.5107 486.675C42.077 489.557 -21.5799 505.699 38.6112 478.604L36.9937 448.972L55.2474 445.167Z" fill="#051F38"/>
<path d="M52.5902 476.759C54.0921 464.422 55.2474 445.167 55.2474 445.167L36.9937 448.972L38.4955 475.376C43.0012 476.644 48.2 476.759 52.5902 476.759Z" fill="#041523"/>
<path d="M13.079 492.786C11.2306 497.282 44.5031 488.75 50.5107 486.675C50.6262 486.559 50.8573 486.329 51.0883 485.752C43.5789 487.828 20.8195 493.016 13.079 492.786Z" fill="white"/>
<path d="M94.1809 442.977C94.1809 442.977 97.5313 483.677 99.8419 484.369C108.391 487.136 172.279 502.01 111.51 476.067L112.55 446.436L94.1809 442.977Z" fill="#051F38"/>
<path d="M97.5313 474.453C95.7983 462.232 94.1809 442.977 94.1809 442.977L112.55 446.436L111.626 472.839C107.12 474.223 101.921 474.338 97.5313 474.453Z" fill="#041523"/>
<path d="M137.389 489.788C139.353 494.284 105.849 486.329 99.8419 484.369C99.6109 484.369 99.4953 484.023 99.2643 483.446C106.774 485.522 129.649 490.249 137.389 489.788Z" fill="white"/>
<path d="M105.387 223.218C105.387 223.218 122.024 357.31 118.673 465.806C118.673 465.806 98.8022 471.34 93.6033 467.305C89.0976 441.593 89.6753 391.554 82.9746 354.427C76.6204 319.377 74.0788 290.667 74.0788 290.667L71.9992 288.361C71.9992 288.361 58.3667 457.85 55.363 470.764C38.149 474.799 32.7191 470.072 32.7191 470.072C32.7191 470.072 24.8631 258.038 29.7154 223.794C35.954 179.059 105.387 223.218 105.387 223.218Z" fill="#34CB79"/>
<path opacity="0.1" d="M108.39 251.004C106.657 233.709 105.271 223.333 105.271 223.333C105.271 223.333 35.9527 179.173 29.5986 223.909C29.0209 228.06 28.6743 234.862 28.3278 243.51C33.5266 246.392 98.4543 255.616 108.39 251.004Z" fill="#161826"/>
<path opacity="0.1" d="M72.808 286.978C73.6167 296.086 77.7758 325.488 82.9746 354.427C89.6753 391.669 89.0977 441.593 93.6033 467.305C98.8022 471.34 118.673 465.806 118.673 465.806C120.637 399.048 115.207 322.605 110.586 273.719C99.6109 280.636 85.6318 283.98 72.808 286.978Z" fill="#161826"/>
<path d="M78.7 105.959C78.8155 91.8928 79.8553 73.3298 79.8553 73.3298L52.1281 65.7201C52.1281 65.7201 53.0524 90.8552 53.8611 106.19C41.2683 110.456 26.9426 118.527 26.9426 118.527L79.2776 131.786L97.8779 113.8C97.8779 113.8 88.52 109.072 78.7 105.959Z" fill="#FFB39F"/>
<path d="M78.7 105.959C78.8155 91.8928 79.8553 73.3298 79.8553 73.3298L52.1281 65.7201C52.1281 65.7201 53.0524 90.8552 53.8611 106.19C41.2683 110.456 26.9426 118.527 26.9426 118.527L79.2776 131.786L104.001 110.571C104.001 110.571 88.6355 104.806 78.7 105.959Z" fill="#E09B8D"/>
<path d="M49.7019 39.0862C49.7019 39.0862 56.9803 15.5653 76.1582 19.2549C95.3362 22.9444 98.1089 47.9642 100.535 64.7978C102.961 81.7466 97.5313 96.966 82.5124 98.8108C69.4575 100.425 46.6981 97.8884 49.7019 39.0862Z" fill="#FFB39F"/>
<path d="M50.6262 58.8022C50.6262 58.8022 49.4709 55.6891 44.7342 59.1481C38.7266 63.5294 44.8497 79.6712 52.1281 77.9418C59.4065 76.2123 50.6262 58.8022 50.6262 58.8022Z" fill="#FFB39F"/>
<path d="M43.9254 25.5963C44.3876 25.481 53.3989 24.7892 47.3913 25.3657C52.9368 31.3612 52.3591 32.8601 59.9841 34.2436C64.0276 46.6959 56.0561 54.1903 56.0561 54.1903L58.2511 69.1791L52.4747 69.7556C52.4747 69.7556 52.5902 59.3787 48.2001 58.4563C43.8099 57.5339 42.5391 62.8377 42.5391 62.8377C33.4122 51.3078 24.1699 28.7093 43.9254 25.5963Z" fill="#051F38"/>
<path d="M96.2604 17.1795C99.9574 8.07089 93.7188 0 93.7188 0C94.7585 3.34366 94.2964 6.45671 93.2566 8.99328C92.5634 6.45671 91.2926 3.68955 88.982 0.922387C88.982 0.922387 89.6752 10.1463 77.0825 8.99328C64.4897 7.84029 42.4235 9.56977 41.4993 29.0552C40.4595 48.5407 59.2909 34.3589 59.2909 34.3589C59.2909 34.3589 96.8381 44.8511 102.268 14.6429L96.2604 17.1795Z" fill="#051F38"/>
<path d="M78.4689 50.8476C78.4689 50.8476 78.1223 50.8476 77.6602 50.7323C77.0826 50.617 76.3894 50.5017 75.5807 50.3864C75.1186 50.2711 74.772 50.2711 74.3099 50.2711C73.8477 50.1558 73.3856 50.1558 72.9235 50.1558C72.4614 50.1558 71.9993 50.1558 71.4216 50.1558C71.1906 50.1558 70.9595 50.1558 70.7284 50.1558L70.0353 50.2711C69.5731 50.2711 69.111 50.3864 68.5334 50.5017C68.0713 50.617 67.6091 50.7323 67.147 50.8476C66.6849 50.9629 66.2228 51.1935 65.7607 51.3088C65.2985 51.4241 64.9519 51.6547 64.4898 51.77C64.1432 51.8853 63.6811 52.0006 63.4501 52.2312C63.1035 52.3465 62.8724 52.4618 62.6414 52.5771C62.1792 52.8077 61.8326 52.923 61.8326 52.923C61.8326 52.923 61.9482 52.5771 62.1792 52.1159C62.2948 51.8853 62.4103 51.5394 62.6414 51.1935C62.8724 50.8476 63.1035 50.5017 63.4501 50.1558C63.7966 49.8099 64.0277 49.3487 64.4898 49.0028C64.9519 48.6569 65.4141 48.311 65.9917 47.9651C66.5694 47.7345 67.147 47.3886 67.7247 47.158C68.4178 46.9274 68.9955 46.8121 69.6887 46.6968L70.7284 46.5815C71.075 46.5815 71.4216 46.5815 71.7682 46.6968C72.1148 46.6968 72.4614 46.8121 72.6924 46.8121C73.039 46.9274 73.2701 46.9274 73.6167 47.0427C74.1943 47.2733 74.772 47.3886 75.2341 47.7345C75.6962 47.9651 76.1583 48.311 76.6205 48.5416C76.967 48.7722 77.3136 49.1181 77.6602 49.3487C77.8913 49.5793 78.1223 49.9252 78.3534 50.0405C78.2379 50.5017 78.4689 50.8476 78.4689 50.8476Z" fill="#051F38"/>
<path d="M97.9934 50.2702C97.9934 50.2702 97.7624 50.1549 97.3002 50.0396C96.8381 49.9243 96.2605 49.6937 95.6828 49.4631C95.3362 49.3478 94.9897 49.2325 94.6431 49.1172C94.2965 49.0019 93.9499 48.8866 93.6033 48.8866C93.2567 48.8866 92.9101 48.7713 92.5635 48.656C92.448 48.656 92.2169 48.656 92.1014 48.5407H91.6393C91.2927 48.4254 90.9461 48.656 90.5995 48.5407C90.2529 48.656 89.9063 48.656 89.5598 48.7713C89.2132 48.8866 88.8666 49.0019 88.52 49.1172C88.1734 49.2325 87.8268 49.3478 87.5958 49.4631C87.2492 49.5784 86.9026 49.6937 86.6715 49.809C86.4405 49.9243 86.2094 50.0396 85.9783 50.0396C85.5162 50.1549 85.2852 50.2702 85.2852 50.2702C85.2852 50.2702 85.2852 50.0396 85.5162 49.5784C85.6317 49.3478 85.6317 49.1172 85.8628 48.7713C85.9783 48.4254 86.2094 48.1948 86.4405 47.8489C86.6715 47.503 86.9026 47.1571 87.2492 46.8112C87.5957 46.4653 88.0579 46.2347 88.4045 45.8888C88.8666 45.6582 89.4442 45.4276 89.9063 45.197C90.484 45.0817 91.0616 44.9664 91.6393 44.9664C91.9859 44.9664 92.2169 44.9664 92.5635 44.9664C92.9101 44.9664 93.1412 45.0817 93.3722 45.197C93.6033 45.197 93.9499 45.3123 94.1809 45.4276C94.412 45.5429 94.6431 45.6582 94.8741 45.7735C95.7984 46.35 96.4916 46.9265 96.9537 47.6183C97.4158 48.3101 97.6468 48.8866 97.8779 49.3478C97.9934 50.0396 97.9934 50.2702 97.9934 50.2702Z" fill="#051F38"/>
<path d="M83.7833 51.5385C84.4765 53.0373 85.1697 54.6515 85.8629 56.1504C86.2095 56.9575 86.4405 57.6493 86.7871 58.4564L87.7113 60.7623L88.6356 63.0683C88.9822 63.8754 89.2132 64.5672 89.5598 65.3743L90.0219 66.5273C90.1375 66.8731 90.3685 67.3343 90.4841 67.6802C90.8306 68.372 91.1772 69.0638 91.5238 69.8709L91.8704 70.7933L91.1772 71.1392C90.1375 71.6004 89.0977 72.1769 87.9424 72.6381C86.9026 73.0993 85.7473 73.5605 84.592 73.9064C85.5163 73.0993 86.4405 72.4075 87.3648 71.7157C88.289 71.0239 89.3288 70.3321 90.253 69.6403L89.9064 70.9086C89.4443 70.2168 88.9822 69.4097 88.5201 68.7179C88.0579 68.0261 87.7113 67.219 87.3648 66.412L86.7871 65.259L86.325 64.106C86.0939 63.2989 85.7473 62.4918 85.5163 61.6847L84.8231 59.2634C84.592 58.4564 84.4765 57.6493 84.2455 56.8422C84.1299 54.9974 83.8989 53.2679 83.7833 51.5385Z" fill="#DD9078"/>
<path d="M50.2796 74.5981C49.8175 74.3675 49.3553 74.0216 49.0087 73.5604C48.6622 73.2145 48.2 72.7533 47.969 72.1769C47.8535 71.9463 47.7379 71.6004 47.7379 71.2545C47.7379 71.1392 47.7379 70.9086 47.7379 70.7933C47.7379 70.678 47.8535 70.4474 47.8535 70.3321C47.969 69.9862 48.2 69.7556 48.4311 69.525C48.5466 69.4097 48.6622 69.2944 48.7777 69.1791L49.1243 68.9485L48.8932 69.2944C48.8932 68.0261 48.8932 66.7578 48.7777 65.6048C48.6622 64.3366 48.5466 63.0683 48.0845 62.0306C47.969 61.8 47.8535 61.5694 47.6224 61.4541C47.5069 61.3388 47.2758 61.2235 47.0447 61.2235C46.9292 61.2235 46.8137 61.2235 46.6982 61.3388C46.5826 61.3388 46.3516 61.4541 46.236 61.4541C46.005 61.5694 45.7739 61.6847 45.5429 61.9153C45.3118 62.1459 45.0807 62.2612 44.9652 62.4918C44.8497 62.7224 44.6186 62.953 44.5031 63.2989C44.272 63.8754 44.1565 64.4519 44.1565 65.1436C43.9254 64.5671 43.9254 63.8754 44.041 63.1836C44.041 62.8377 44.1565 62.4918 44.3876 62.2612C44.5031 61.9153 44.7341 61.6847 44.9652 61.4541L45.3118 61.1082L45.7739 60.7623C45.8895 60.647 46.1205 60.647 46.236 60.5317C46.3516 60.4164 46.5826 60.4164 46.8137 60.3011C47.2758 60.1858 47.7379 60.3011 48.0845 60.647C48.4311 60.8776 48.6622 61.2235 48.7777 61.5694C49.1243 62.2612 49.2398 62.8377 49.4709 63.5295C49.5864 64.2213 49.7019 64.7977 49.7019 65.4895C49.8175 66.7578 49.8175 68.0261 49.7019 69.4097V69.6403L49.4709 69.7556C49.2398 69.8709 49.0088 69.9862 48.8932 70.2168C48.7777 70.3321 48.5466 70.5627 48.4311 70.678C48.3156 70.7933 48.3156 70.9086 48.3156 71.0239C48.3156 71.1392 48.2 71.2545 48.2 71.3698C48.2 71.6004 48.2 71.831 48.2 72.0615C48.3156 72.5227 48.5466 72.9839 48.8932 73.4451C49.5864 73.9063 49.933 74.2522 50.2796 74.5981Z" fill="#DD9078"/>
<path d="M68.4177 61.8C68.4177 61.8 68.5333 62.0306 68.6488 62.4918C68.7643 62.7224 68.7643 62.953 68.8798 63.1835C68.9954 63.4141 69.1109 63.76 69.342 64.1059C69.4575 64.4518 69.8041 64.6824 69.9196 65.0283C70.0351 65.1436 70.1507 65.2589 70.3817 65.4895C70.4973 65.6048 70.6128 65.7201 70.8438 65.8354C71.1904 66.066 71.537 66.1813 71.8836 66.2966C72.1147 66.2966 72.2302 66.4119 72.4613 66.4119C72.6923 66.4119 72.8079 66.4119 73.0389 66.2966L73.6166 66.066L74.1942 65.7201C74.5408 65.4895 74.7719 65.1436 75.0029 64.7977C75.234 64.4518 75.3495 64.1059 75.5806 63.76C75.6961 63.4141 75.8116 63.0683 75.8116 62.6071C75.8116 62.2612 75.8116 61.9153 75.9272 61.6847C75.9272 61.3388 75.9272 61.1082 75.9272 60.8776C75.9272 60.4164 75.9272 60.1858 75.9272 60.1858C75.9272 60.1858 76.0427 60.4164 76.1582 60.8776C76.2737 61.1082 76.2738 61.3388 76.3893 61.6847C76.3893 62.0306 76.5048 62.3765 76.5048 62.7224C76.5048 63.0682 76.5048 63.5294 76.3893 63.9906C76.2738 64.4518 76.1582 64.913 75.9272 65.3742C75.6961 65.8354 75.3495 66.2966 74.8874 66.6425L74.1942 67.1037C73.9632 67.219 73.6166 67.3343 73.3855 67.4496C73.1544 67.4496 72.8079 67.5649 72.4613 67.5649C72.2302 67.5649 71.8836 67.4496 71.6526 67.4496C71.0749 67.3343 70.6128 66.9884 70.1507 66.6425C69.6886 66.2966 69.4575 65.8354 69.2264 65.4895C68.9954 65.0283 68.7643 64.6824 68.6488 64.3365C68.5333 63.9906 68.4177 63.6447 68.4177 63.2988C68.4177 62.953 68.4177 62.7224 68.4177 62.4918C68.4177 62.0306 68.4177 61.8 68.4177 61.8Z" fill="#1F2733"/>
<path d="M89.3287 58.341C89.3287 58.341 89.4443 58.5716 89.5598 59.0328C89.6753 59.2634 89.6753 59.494 89.7908 59.7246C89.9064 59.9552 90.0219 60.3011 90.253 60.647C90.3685 60.9929 90.7151 61.2235 90.8306 61.5694C90.9462 61.6847 91.0617 61.8 91.2927 62.0306C91.4083 62.1459 91.5238 62.2612 91.7549 62.3765C92.1015 62.6071 92.448 62.7224 92.7946 62.8377C93.0257 62.8377 93.1412 62.953 93.3723 62.953C93.6033 62.953 93.7189 62.953 93.9499 62.8377L94.5276 62.6071L95.1052 62.2612C95.4518 62.0306 95.6829 61.6847 95.9139 61.3388C96.145 60.9929 96.2605 60.647 96.4916 60.3011C96.6071 59.9552 96.7226 59.6093 96.7226 59.1481C96.7226 58.8022 96.7226 58.4563 96.8382 58.2257C96.8382 57.8798 96.8382 57.6493 96.8382 57.4187C96.8382 56.9575 96.8382 56.7269 96.8382 56.7269C96.8382 56.7269 96.9537 56.9575 97.0692 57.4187C97.1848 57.6493 97.1848 57.8798 97.3003 58.2257C97.3003 58.5716 97.4158 58.9175 97.4158 59.2634C97.4158 59.6093 97.4158 60.0705 97.3003 60.5317C97.1848 60.9929 97.0692 61.4541 96.8382 61.9153C96.6071 62.3765 96.2605 62.8377 95.7984 63.1836L95.1052 63.6448C94.8742 63.7601 94.5276 63.8754 94.2965 63.9907C94.0655 63.9907 93.7189 64.106 93.3723 64.106C93.1412 64.106 92.7946 63.9907 92.5636 63.9907C91.9859 63.8754 91.5238 63.5295 91.0617 63.1836C90.5996 62.8377 90.3685 62.3765 90.1374 62.0306C89.9064 61.5694 89.6753 61.2235 89.5598 60.8776C89.4443 60.5317 89.3287 60.1858 89.3287 59.8399C89.3287 59.494 89.3287 59.2634 89.3287 59.0328C89.3287 58.5716 89.3287 58.341 89.3287 58.341Z" fill="#1F2733"/>
<path d="M70.2374 78.1034C70.2374 78.1034 70.1218 78.1034 70.2374 78.2187C70.3529 78.334 70.584 78.4493 70.815 78.5646C71.2771 78.9105 72.0858 79.2564 73.0101 79.7176C73.9343 80.1788 75.0896 80.64 76.2449 80.9859C76.8226 81.2165 77.5157 81.3318 78.0934 81.4471C78.671 81.5624 79.3642 81.6777 80.0574 81.793C81.3282 81.9083 82.599 82.0236 83.8699 81.9083C85.1407 81.793 86.1805 81.5624 87.2202 81.2165C88.1445 80.8706 88.9532 80.64 89.5308 80.4094C90.1085 80.1788 90.4551 80.0635 90.4551 80.0635C90.4551 80.0635 90.224 80.4094 89.7619 80.7553C89.2998 81.2165 88.6066 81.793 87.6824 82.3695C86.7581 82.946 85.4873 83.5225 84.1009 83.7531C82.7146 84.099 81.2127 84.099 79.7108 83.9837C79.0176 83.8684 78.2089 83.7531 77.5157 83.5225C76.8226 83.2919 76.1294 83.0613 75.5517 82.7154C74.2809 82.1389 73.2411 81.4471 72.4324 80.7553C71.6237 80.0635 70.9305 79.3717 70.584 78.7952C70.3529 78.5646 70.2374 78.334 70.2374 78.1034C70.1218 78.1034 70.1218 78.2187 70.2374 78.1034Z" fill="#DD9078"/>
<path d="M88.2891 105.613C88.2891 105.613 117.865 102.5 121.677 125.099C125.49 147.813 125.143 153.923 125.143 153.923L96.2606 149.657L88.2891 105.613Z" fill="#6633CC"/>
<path d="M113.242 123.83C111.509 109.417 96.8372 106.304 88.288 105.612C84.4755 110.916 79.1612 114.721 71.8828 114.952C63.5646 115.182 55.9397 112.3 51.8961 105.958C38.9568 107.457 26.133 111.147 23.2447 119.909C17.1217 138.357 22.436 239.82 22.436 239.82C22.436 239.82 74.1934 248.698 116.708 240.627C116.593 240.742 115.553 143.084 113.242 123.83Z" fill="#6633CC"/>
<path opacity="0.2" d="M20.2419 169.258C20.473 202.695 22.437 239.936 22.437 239.936C22.437 239.936 74.1944 248.814 116.709 240.743C116.709 240.743 115.901 166.606 114.168 134.784C82.8591 146.429 51.5505 157.959 20.2419 169.258Z" fill="#352C38"/>
<path d="M52.1277 196.007C52.1277 196.007 50.9724 192.664 56.2868 190.473C61.6011 188.282 116.362 173.985 119.828 174.447C123.294 174.908 165.693 179.981 166.387 182.287C167.08 184.593 115.669 201.196 115.669 201.196L52.1277 196.007Z" fill="#E1EDFF"/>
<path d="M118.558 205.577C118.558 205.577 58.5979 205.347 53.9767 199.928C49.3555 194.509 49.24 190.588 75.4652 195.2C101.69 199.812 116.825 199.121 116.825 199.121C116.825 199.121 164.885 176.753 166.503 182.172C168.005 187.706 173.088 186.322 118.558 205.577Z" fill="#C0D5FF"/>
<path d="M166.387 182.287C164.885 176.868 116.709 199.236 116.709 199.236C116.709 199.236 116.594 199.236 116.247 199.236C117.287 201.311 118.096 203.271 119.02 205.462C173.088 186.322 168.005 187.706 166.387 182.287Z" fill="#B1C5E8"/>
<path d="M50.3943 183.671C50.3943 183.671 49.239 180.327 54.5534 178.136C59.8677 175.946 114.629 161.649 118.095 162.11C121.561 162.571 163.96 167.644 164.653 169.95C165.346 172.256 113.936 188.859 113.936 188.859L50.3943 183.671Z" fill="#E1EDFF"/>
<path d="M116.824 193.356C116.824 193.356 56.8645 193.125 52.2433 187.706C47.6221 182.287 47.5066 178.367 73.7318 182.979C99.9571 187.591 115.091 186.899 115.091 186.899C115.091 186.899 163.152 164.531 164.769 169.95C166.156 175.369 171.354 173.986 116.824 193.356Z" fill="#C0D5FF"/>
<path d="M164.654 170.065C163.152 164.646 114.976 187.014 114.976 187.014C114.976 187.014 114.861 187.014 114.514 187.014C115.554 189.09 116.363 191.05 117.287 193.24C171.239 173.986 166.156 175.369 164.654 170.065Z" fill="#B1C5E8"/>
<path d="M50.1636 173.64C50.1636 173.64 49.1238 170.757 54.2071 168.797C59.2904 166.837 112.319 154.269 115.669 154.731C119.019 155.192 160.032 159.688 160.726 161.648C161.419 163.609 111.625 178.367 111.625 178.367L50.1636 173.64Z" fill="#E1EDFF"/>
<path d="M114.399 182.172C114.399 182.172 56.4028 181.941 51.8972 177.214C47.3915 172.487 47.3915 169.028 72.6925 173.063C97.9936 177.098 112.666 176.522 112.666 176.522C112.666 176.522 159.224 156.806 160.726 161.648C162.228 166.376 167.196 165.107 114.399 182.172Z" fill="#C0D5FF"/>
<path d="M160.726 161.649C159.224 156.921 112.666 176.522 112.666 176.522C112.666 176.522 112.55 176.522 112.204 176.522C113.128 178.252 114.052 180.096 114.861 181.941C167.196 165.107 162.228 166.376 160.726 161.649Z" fill="#B1C5E8"/>
<path d="M51.781 160.15C51.781 160.15 50.8568 157.267 56.0556 155.422C61.2544 153.693 114.629 143.085 117.98 143.662C121.33 144.123 162.112 150.234 162.69 152.194C163.267 154.154 113.012 166.952 113.012 166.952L51.781 160.15Z" fill="white"/>
<path d="M115.67 171.102C115.67 171.102 57.6737 168.681 53.3991 163.838C49.1245 158.88 49.1245 155.537 74.31 160.494C99.4955 165.452 114.168 165.452 114.168 165.452C114.168 165.452 161.419 147.581 162.69 152.308C164.077 157.036 169.044 155.998 115.67 171.102Z" fill="#C0D5FF"/>
<path d="M162.69 152.309C161.419 147.467 114.168 165.453 114.168 165.453C114.168 165.453 114.052 165.453 113.706 165.453C114.63 167.298 115.439 169.143 116.132 170.988C168.929 155.999 163.961 157.037 162.69 152.309Z" fill="#B1C5E8"/>
<path d="M21.6284 162.34L50.1643 155.422C50.1643 155.422 56.2874 196.93 57.9048 199.236C59.5222 201.542 107.236 203.848 107.236 203.848L121.1 204.655C121.1 204.655 62.526 229.213 45.6586 219.298C28.5602 209.151 21.6284 162.34 21.6284 162.34Z" fill="#FFB39F"/>
<path d="M24.4011 167.298C33.1814 164.646 41.7306 161.418 50.7419 159.458C50.3953 156.921 50.1643 155.422 50.1643 155.422L21.6284 162.34C21.6284 162.34 21.975 164.416 22.5527 167.875C23.2458 167.644 23.8235 167.413 24.4011 167.298Z" fill="#E09B8D"/>
<path d="M115.785 208.46C115.785 208.46 137.505 202.695 137.505 198.313C137.505 193.932 129.649 178.136 135.194 199.236C135.194 199.236 123.641 170.642 132.884 200.619C132.884 200.619 123.872 177.329 129.995 201.196C129.995 201.196 120.753 185.054 127.454 202.349L119.136 205.462L99.1489 205.231L88.5201 215.608L115.785 208.46Z" fill="#FFB39F"/>
<path d="M166.618 187.36C166.618 187.36 155.065 158.766 164.308 188.744C164.308 188.744 155.296 165.453 161.419 189.32C161.419 189.32 152.177 173.178 158.069 190.588L151.715 193.586C154.026 193.817 157.029 193.701 159.455 192.894C166.849 191.395 168.929 188.859 168.929 186.553C168.929 182.172 161.073 166.376 166.618 187.36Z" fill="#FFB39F"/>
<path d="M196.078 490.825C196.078 494.976 192.728 498.435 188.569 498.55C184.41 498.55 180.944 495.207 180.828 491.056L180.482 466.613C180.482 462.462 183.832 459.003 187.991 458.888C192.15 458.888 195.616 462.231 195.732 466.382L196.078 490.825Z" fill="#091E1D"/>
<path d="M89.6753 492.095C89.6753 496.245 86.3249 499.704 82.1658 499.82C78.0067 499.82 74.5408 496.476 74.4253 492.325L74.0787 467.882C74.0787 463.731 77.4291 460.272 81.5882 460.157C85.7472 460.157 89.2131 463.501 89.3287 467.651L89.6753 492.095Z" fill="#091E1D"/>
<path d="M187.529 473.415C187.644 482.87 180.019 490.595 170.546 490.71L99.3797 491.517C89.9062 491.633 82.1657 484.023 82.0502 474.568L74.4252 312.92C74.3097 303.466 81.9347 295.741 91.4081 295.625L174.012 294.588C183.485 294.472 191.226 302.082 191.341 311.536L187.529 473.415Z" fill="#322153"/>
<path d="M190.879 327.793L191.226 311.767C191.11 302.312 183.37 294.703 173.896 294.818L91.2926 295.856C81.8192 295.971 74.1942 303.696 74.3098 313.151L75.1185 329.177L190.879 327.793Z" fill="#1C0C3B"/>
<path d="M204.974 307.732C204.974 310.383 202.894 312.459 200.237 312.574L65.2985 314.188C62.6413 314.188 60.5618 312.113 60.4463 309.461L60.2152 292.397C60.2152 289.745 62.2947 287.67 64.9519 287.554L199.891 285.94C202.548 285.94 204.627 288.016 204.743 290.667L204.974 307.732Z" fill="#322153"/>
<path d="M133.345 355.119L149.057 345.665L145.245 355.465L133.345 355.119Z" fill="white"/>
<path d="M127.453 340.246C127.453 340.246 128.724 340.246 130.688 343.243C132.652 346.241 137.042 354.312 137.042 354.312L145.014 350.738L146.862 347.625C146.862 347.625 143.397 340.707 140.624 340.246H127.453Z" fill="white"/>
<path d="M123.063 342.321C123.063 342.321 125.49 339.669 127.454 341.053C129.418 342.437 132.883 348.202 132.883 348.202L127.223 358.117L117.056 352.468L123.063 342.321Z" fill="white"/>
<path d="M140.508 367.456L141.317 385.673L134.501 377.718L140.508 367.456Z" fill="white"/>
<path d="M156.452 369.301C156.452 369.301 155.874 370.454 152.292 370.8C148.711 371.146 139.469 371.146 139.469 371.146L138.776 379.908L140.624 383.021C140.624 383.021 148.364 383.367 150.097 381.061L156.452 369.301Z" fill="white"/>
<path d="M156.567 364.458C156.567 364.458 157.838 367.802 155.643 368.955C153.563 369.993 146.747 370.223 146.747 370.223L140.624 360.538L150.444 354.197L156.567 364.458Z" fill="white"/>
<path d="M126.759 367.226L110.585 358.693L120.867 356.849L126.759 367.226Z" fill="white"/>
<path d="M117.056 380.024C117.056 380.024 116.363 378.986 117.865 375.758C119.366 372.529 123.988 364.574 123.988 364.574L116.825 359.616L113.243 359.731C113.243 359.731 109.084 366.303 110.124 368.84L117.056 380.024Z" fill="white"/>
<path d="M121.215 382.56C121.215 382.56 117.633 381.868 117.864 379.562C117.98 377.141 121.215 371.261 121.215 371.261L132.652 370.915L133.114 382.56H121.215Z" fill="white"/>
<defs>
<linearGradient id="paint0_linear" x1="122.5" y1="153.5" x2="621" y2="652" gradientUnits="userSpaceOnUse">
<stop stop-color="white"/>
<stop offset="1" stop-color="white" stop-opacity="0"/>
</linearGradient>
</defs>
</svg>
